<svg width="41" height="49" viewBox="0 0 41 49" fill="none" xmlns="http://www.w3.org/2000/svg">
<path d="M32.9804 20.1761H8.28493C6.58006 20.1761 5.198 21.5582 5.198 23.263V41.7846C5.198 43.4895 6.58006 44.8715 8.28493 44.8715H32.9804C34.6852 44.8715 36.0673 43.4895 36.0673 41.7846V23.263C36.0673 21.5582 34.6852 20.1761 32.9804 20.1761Z" stroke="#121212" stroke-width="4.5" stroke-linecap="round" stroke-linejoin="round"/>
<path d="M31.4369 20.1761V15.5457C31.4369 12.6802 30.2986 9.93211 28.2724 7.90592C26.2462 5.87973 23.4981 4.74142 20.6326 4.74142C17.7672 4.74142 15.0191 5.87973 12.9929 7.90592C10.9667 9.93211 9.82837 12.6802 9.82837 15.5457V20.1761" stroke="#121212" stroke-width="4.5" stroke-linecap="round" stroke-linejoin="round"/>
</svg>
