<svg xmlns="http://www.w3.org/2000/svg" xmlns:xlink="http://www.w3.org/1999/xlink" xml:space="preserve" version="1.1" style="shape-rendering:geometricPrecision;text-rendering:geometricPrecision;image-rendering:optimizeQuality;" viewBox="0 0 2540 3175" x="0px" y="0px" fill-rule="evenodd" clip-rule="evenodd"><defs><style type="text/css">
   
    .fil0 {fill:black;fill-rule:nonzero}
   
  </style></defs><g><path class="fil0" d="M614 851c103,-137 248,-240 415,-291l0 -135c0,-38 41,-67 80,-42l462 267c34,20 34,68 0,88l-466 269c-34,19 -76,-5 -76,-44l0 0 0 -83c-313,163 -380,584 -129,835 331,331 894,93 894,-370 0,-79 -20,-133 -20,-148 0,-29 23,-51 51,-51l202 0c23,0 45,17 49,41 99,507 -289,979 -806,979 -677,0 -1062,-777 -656,-1315z"/></g><text x="0" y="2555" fill="#000000" font-size="5px" font-weight="bold" font-family="'Helvetica Neue', Helvetica, Arial-Unicode, Arial, Sans-serif">Created by fibo junior</text><text x="0" y="2560" fill="#000000" font-size="5px" font-weight="bold" font-family="'Helvetica Neue', Helvetica, Arial-Unicode, Arial, Sans-serif">from the Noun Project</text></svg>